<svg xmlns="http://www.w3.org/2000/svg" xmlns:xlink="http://www.w3.org/1999/xlink" width="200" zoomAndPan="magnify" viewBox="0 0 150 149.999998" height="200" preserveAspectRatio="xMidYMid meet" version="1.0"><defs><clipPath id="id1"><path d="M 1.363281 0 L 96 0 L 96 150 L 1.363281 150 Z M 1.363281 0 " clip-rule="nonzero"/></clipPath><clipPath id="id2"><path d="M 86 35 L 148.363281 35 L 148.363281 150 L 86 150 Z M 86 35 " clip-rule="nonzero"/></clipPath></defs><g clip-path="url(#id1)"><path fill="rgb(0%, 72.938538%, 100%)" d="M 95.066406 13.421875 C 95.195312 13.054688 95.300781 12.683594 95.382812 12.304688 C 95.46875 11.925781 95.527344 11.542969 95.566406 11.15625 C 95.605469 10.769531 95.621094 10.382812 95.613281 9.992188 C 95.605469 9.605469 95.578125 9.21875 95.523438 8.832031 C 95.46875 8.449219 95.394531 8.070312 95.296875 7.691406 C 95.199219 7.316406 95.078125 6.949219 94.9375 6.585938 C 94.796875 6.226562 94.632812 5.875 94.449219 5.53125 C 94.265625 5.191406 94.0625 4.859375 93.839844 4.542969 C 93.617188 4.222656 93.378906 3.921875 93.117188 3.628906 C 92.859375 3.339844 92.585938 3.066406 92.292969 2.8125 C 92.003906 2.554688 91.699219 2.316406 91.378906 2.09375 C 91.058594 1.875 90.730469 1.675781 90.386719 1.492188 C 90.042969 1.3125 89.691406 1.152344 89.328125 1.011719 C 88.96875 0.875 88.597656 0.757812 88.222656 0.660156 C 87.847656 0.566406 87.46875 0.492188 87.082031 0.441406 C 86.699219 0.390625 86.3125 0.363281 85.925781 0.359375 L 66.753906 0.359375 C 65.554688 0.359375 64.367188 0.453125 63.183594 0.636719 C 62 0.820312 60.835938 1.097656 59.695312 1.460938 C 58.554688 1.824219 57.449219 2.273438 56.375 2.808594 C 55.304688 3.34375 54.28125 3.960938 53.300781 4.652344 C 52.324219 5.347656 51.40625 6.113281 50.546875 6.949219 C 49.6875 7.785156 48.898438 8.683594 48.179688 9.640625 C 47.457031 10.597656 46.8125 11.605469 46.25 12.664062 C 45.683594 13.722656 45.203125 14.816406 44.804688 15.949219 L 2.511719 136.578125 C 2.382812 136.945312 2.273438 137.320312 2.191406 137.703125 C 2.105469 138.085938 2.046875 138.46875 2.007812 138.859375 C 1.96875 139.246094 1.953125 139.636719 1.960938 140.027344 C 1.96875 140.417969 2 140.808594 2.054688 141.195312 C 2.109375 141.582031 2.1875 141.964844 2.289062 142.339844 C 2.386719 142.71875 2.511719 143.089844 2.652344 143.453125 C 2.796875 143.816406 2.964844 144.167969 3.148438 144.511719 C 3.335938 144.855469 3.542969 145.1875 3.769531 145.503906 C 3.992188 145.824219 4.238281 146.128906 4.5 146.417969 C 4.761719 146.707031 5.039062 146.980469 5.335938 147.234375 C 5.628906 147.492188 5.9375 147.730469 6.261719 147.949219 C 6.582031 148.167969 6.917969 148.367188 7.265625 148.546875 C 7.613281 148.726562 7.96875 148.882812 8.332031 149.019531 C 8.699219 149.15625 9.070312 149.269531 9.449219 149.363281 C 9.828125 149.453125 10.210938 149.523438 10.597656 149.570312 C 10.988281 149.617188 11.375 149.640625 11.765625 149.640625 L 37.183594 149.640625 C 37.925781 149.644531 38.667969 149.589844 39.40625 149.480469 C 40.140625 149.371094 40.863281 149.203125 41.574219 148.980469 C 42.285156 148.753906 42.976562 148.476562 43.644531 148.144531 C 44.308594 147.8125 44.949219 147.433594 45.554688 147 C 46.164062 146.570312 46.734375 146.09375 47.269531 145.574219 C 47.804688 145.054688 48.292969 144.496094 48.738281 143.898438 C 49.1875 143.300781 49.585938 142.671875 49.933594 142.011719 C 50.285156 141.351562 50.578125 140.671875 50.820312 139.964844 L 75.007812 71.066406 Z M 95.066406 13.421875 " fill-opacity="1" fill-rule="nonzero"/></g><g clip-path="url(#id2)"><path fill="rgb(0%, 72.938538%, 100%)" d="M 138.25 149.640625 C 138.636719 149.636719 139.027344 149.613281 139.414062 149.566406 C 139.800781 149.519531 140.179688 149.449219 140.558594 149.355469 C 140.9375 149.265625 141.308594 149.148438 141.675781 149.011719 C 142.039062 148.875 142.394531 148.714844 142.738281 148.535156 C 143.085938 148.355469 143.417969 148.15625 143.742188 147.9375 C 144.0625 147.71875 144.371094 147.480469 144.664062 147.222656 C 144.957031 146.96875 145.234375 146.695312 145.496094 146.40625 C 145.757812 146.117188 146 145.8125 146.226562 145.492188 C 146.449219 145.175781 146.65625 144.84375 146.839844 144.5 C 147.027344 144.15625 147.191406 143.804688 147.335938 143.441406 C 147.480469 143.078125 147.601562 142.710938 147.699219 142.332031 C 147.800781 141.957031 147.875 141.574219 147.929688 141.1875 C 147.984375 140.800781 148.015625 140.414062 148.023438 140.023438 C 148.03125 139.632812 148.015625 139.242188 147.976562 138.855469 C 147.941406 138.46875 147.878906 138.082031 147.792969 137.703125 C 147.710938 137.320312 147.605469 136.945312 147.476562 136.578125 L 112.601562 37.046875 C 112.375 36.453125 112 35.972656 111.476562 35.613281 C 110.953125 35.25 110.371094 35.070312 109.738281 35.070312 C 109.101562 35.070312 108.519531 35.25 107.996094 35.613281 C 107.472656 35.972656 107.097656 36.453125 106.871094 37.046875 L 92.917969 76.695312 L 87.902344 91.046875 C 86.957031 93.746094 86.484375 96.527344 86.484375 99.386719 C 86.484375 102.246094 86.957031 105.027344 87.902344 107.726562 L 99.191406 139.992188 C 99.4375 140.699219 99.734375 141.378906 100.082031 142.035156 C 100.433594 142.695312 100.832031 143.320312 101.277344 143.917969 C 101.726562 144.511719 102.21875 145.070312 102.75 145.589844 C 103.285156 146.109375 103.855469 146.582031 104.464844 147.011719 C 105.070312 147.441406 105.710938 147.824219 106.375 148.152344 C 107.042969 148.484375 107.730469 148.761719 108.441406 148.984375 C 109.152344 149.207031 109.875 149.371094 110.613281 149.484375 C 111.347656 149.59375 112.085938 149.644531 112.832031 149.640625 Z M 138.25 149.640625 " fill-opacity="1" fill-rule="nonzero"/></g></svg>